# xmcd CD database file
#
# Track frame offsets:
#	150
#	8611
#	19110
#	29509
#	41087
#	52032
#	63986
#	74186
#	85609
#	96996
#	107548
#	117806
#	128187
#	139688
#
# Disc length: 1982 seconds
#
# Revision: 0
# Processed by: cddbd v1.5.1PL0 Copyright (c) Steve Scherf et al.
# Submitted via: CDex 1.51
#
DISCID=be07bc0e
DTITLE=Hop Trop - Trojhlava san
DYEAR=2004
DGENRE=Country
TTITLE0=Silver Hill
TTITLE1=Lasky
TTITLE2=Bijak
TTITLE3=Hledam takovyho chlapa
TTITLE4=Dvojce
TTITLE5=Bily kone
TTITLE6=Markoni
TTITLE7=Oresak
TTITLE8=Slavnostni den
TTITLE9=Zlata brana
TTITLE10=Obchodak
TTITLE11=Valouny
TTITLE12=Bile Jeepy(Afrika)
TTITLE13=Trojhlava san
EXTD=YEAR: 2004
EXTT0=
EXTT1=
EXTT2=
EXTT3=
EXTT4=
EXTT5=
EXTT6=
EXTT7=
EXTT8=
EXTT9=
EXTT10=
EXTT11=
EXTT12=
EXTT13=
PLAYORDER=
